<svg width="48" height="11" viewBox="0 0 48 11" fill="none" xmlns="http://www.w3.org/2000/svg">
<path d="M8.13086 10.0703C7.88867 10.0391 7.6543 10.0176 7.42773 10.0059C7.20508 9.99414 6.97852 9.98828 6.74805 9.98828C6.12695 9.98828 5.49023 10.0488 4.83789 10.1699C4.86133 10.0762 4.88672 9.99414 4.91406 9.92383C4.94531 9.84961 4.97266 9.76953 4.99609 9.68359C5.01953 9.59375 5.03906 9.49023 5.05469 9.37305C5.07031 9.25586 5.07812 9.10547 5.07812 8.92188C5.07812 8.73438 5.06445 8.55664 5.03711 8.38867C5.00977 8.2168 4.96875 8.06641 4.91406 7.9375C4.85938 7.80469 4.79102 7.69922 4.70898 7.62109C4.63086 7.54297 4.53906 7.50391 4.43359 7.50391C4.31641 7.50391 4.2168 7.53906 4.13477 7.60938C4.05664 7.67969 3.99219 7.77539 3.94141 7.89648C3.89453 8.01758 3.85938 8.15625 3.83594 8.3125C3.81641 8.46875 3.80664 8.63477 3.80664 8.81055C3.80664 8.98633 3.81641 9.13867 3.83594 9.26758C3.85938 9.39258 3.88477 9.50195 3.91211 9.5957C3.94336 9.68945 3.97266 9.77344 4 9.84766C4.02734 9.91797 4.04688 9.98828 4.05859 10.0586C3.78906 10.0273 3.52344 10.0039 3.26172 9.98828C3.00391 9.97266 2.74609 9.96484 2.48828 9.96484C2.23047 9.96484 1.9707 9.97266 1.70898 9.98828C1.45117 10.0039 1.18359 10.0273 0.90625 10.0586C1.14844 9.35547 1.35938 8.6582 1.53906 7.9668C1.72266 7.27539 1.87891 6.58008 2.00781 5.88086C2.13672 5.18164 2.24023 4.47461 2.31836 3.75977C2.40039 3.04492 2.46094 2.3125 2.5 1.5625C2.78906 1.60156 3.10547 1.63086 3.44922 1.65039C3.79688 1.66602 4.15234 1.67383 4.51562 1.67383C4.82422 1.67383 5.12305 1.66602 5.41211 1.65039C5.70508 1.63477 5.97461 1.60156 6.2207 1.55078C6.24805 2.29688 6.31836 3.03125 6.43164 3.75391C6.54492 4.47656 6.68555 5.19336 6.85352 5.9043C7.02539 6.61133 7.2207 7.3125 7.43945 8.00781C7.6582 8.69922 7.88867 9.38672 8.13086 10.0703ZM4.84961 5.52344C4.8418 5.44922 4.81836 5.33984 4.7793 5.19531C4.74414 5.07031 4.69141 4.90625 4.62109 4.70312C4.55078 4.49609 4.44727 4.23047 4.31055 3.90625C4.2793 4.10938 4.24414 4.29102 4.20508 4.45117C4.16602 4.60742 4.12891 4.75 4.09375 4.87891C4.05859 5.00391 4.02734 5.11914 4 5.22461C3.97656 5.33008 3.96484 5.42969 3.96484 5.52344C3.96484 5.71875 4.00977 5.87109 4.09961 5.98047C4.19336 6.08594 4.29688 6.13867 4.41016 6.13867C4.53125 6.13867 4.63281 6.08008 4.71484 5.96289C4.79688 5.8457 4.8418 5.69922 4.84961 5.52344ZM8.03711 10.082C8.10742 9.82031 8.16797 9.51758 8.21875 9.17383C8.26953 8.82617 8.31055 8.45508 8.3418 8.06055C8.37305 7.66211 8.39453 7.24805 8.40625 6.81836C8.42188 6.38867 8.42969 5.95703 8.42969 5.52344C8.42969 5.05469 8.42188 4.5957 8.40625 4.14648C8.39062 3.69336 8.36914 3.26953 8.3418 2.875C8.31836 2.48047 8.28906 2.12695 8.25391 1.81445C8.21875 1.49805 8.18164 1.24219 8.14258 1.04688C8.21289 1.05859 8.29492 1.06836 8.38867 1.07617C8.4668 1.08398 8.56055 1.0918 8.66992 1.09961C8.7832 1.10352 8.91211 1.10547 9.05664 1.10547C9.27148 1.10547 9.51367 1.0957 9.7832 1.07617C10.0566 1.05664 10.3496 1.01953 10.6621 0.964844C10.627 1.03906 10.5938 1.14844 10.5625 1.29297C10.5352 1.43359 10.5098 1.59766 10.4863 1.78516C10.4629 1.97266 10.4434 2.17578 10.4277 2.39453C10.4121 2.61328 10.3984 2.83398 10.3867 3.05664C10.375 3.27539 10.3652 3.49219 10.3574 3.70703C10.3496 3.91797 10.3438 4.11133 10.3398 4.28711C10.5 3.93945 10.7129 3.66797 10.9785 3.47266C11.248 3.27344 11.5879 3.17383 11.998 3.17383C12.0879 3.17383 12.2012 3.19141 12.3379 3.22656C12.4785 3.26172 12.625 3.32617 12.7773 3.41992C12.9336 3.51367 13.0879 3.64258 13.2402 3.80664C13.3965 3.9668 13.5352 4.17383 13.6562 4.42773C13.7812 4.67773 13.8809 4.98047 13.9551 5.33594C14.0332 5.6875 14.0723 6.10156 14.0723 6.57812C14.0723 7.28125 14.002 7.87109 13.8613 8.34766C13.7207 8.82031 13.541 9.20117 13.3223 9.49023C13.1074 9.77539 12.8672 9.97852 12.6016 10.0996C12.3398 10.2246 12.0859 10.2871 11.8398 10.2871C11.6602 10.2871 11.4883 10.2363 11.3242 10.1348C11.1602 10.0332 11.0117 9.90234 10.8789 9.74219C10.7461 9.58203 10.6289 9.40039 10.5273 9.19727C10.4297 8.99414 10.3555 8.78906 10.3047 8.58203C10.3164 8.66406 10.332 8.78516 10.3516 8.94531C10.375 9.10156 10.3984 9.26367 10.4219 9.43164C10.4453 9.5957 10.4688 9.74609 10.4922 9.88281C10.5195 10.0195 10.5449 10.1074 10.5684 10.1465C10.3223 10.1035 10.0723 10.0742 9.81836 10.0586C9.56836 10.043 9.33398 10.0352 9.11523 10.0352C8.95508 10.0352 8.81055 10.0371 8.68164 10.041C8.55273 10.0449 8.43945 10.0508 8.3418 10.0586C8.22852 10.0664 8.12695 10.0742 8.03711 10.082ZM10.4219 6.70117V7.04688C10.4219 7.15234 10.4277 7.25977 10.4395 7.36914C10.4512 7.47852 10.4766 7.57812 10.5156 7.66797C10.5586 7.75781 10.6191 7.83203 10.6973 7.89062C10.7754 7.94531 10.8809 7.97266 11.0137 7.97266C11.1074 7.97266 11.1875 7.94531 11.2539 7.89062C11.3203 7.83203 11.375 7.75781 11.418 7.66797C11.4609 7.57812 11.4961 7.47656 11.5234 7.36328C11.5508 7.24609 11.5703 7.13086 11.582 7.01758C11.5938 6.9043 11.6016 6.79492 11.6055 6.68945C11.6094 6.58398 11.6113 6.49609 11.6113 6.42578C11.6113 6.32031 11.6055 6.17773 11.5938 5.99805C11.5859 5.81836 11.5645 5.64258 11.5293 5.4707C11.4941 5.29492 11.4395 5.14453 11.3652 5.01953C11.2949 4.89062 11.1973 4.82617 11.0723 4.82617C10.9785 4.82617 10.8965 4.86133 10.8262 4.93164C10.7598 5.00195 10.7012 5.09375 10.6504 5.20703C10.6035 5.31641 10.5645 5.44141 10.5332 5.58203C10.5059 5.71875 10.4824 5.85742 10.4629 5.99805C10.4473 6.13477 10.4355 6.26562 10.4277 6.39062C10.4238 6.51562 10.4219 6.61914 10.4219 6.70117ZM20.1426 6.57812C20.1426 6.80469 20.125 7.05469 20.0898 7.32812C20.0547 7.59766 19.9961 7.87109 19.9141 8.14844C19.832 8.42188 19.7207 8.68945 19.5801 8.95117C19.4395 9.20898 19.2637 9.4375 19.0527 9.63672C18.8457 9.83594 18.5977 9.99609 18.3086 10.1172C18.0195 10.2383 17.6836 10.2988 17.3008 10.2988C16.918 10.2988 16.582 10.2422 16.293 10.1289C16.0078 10.0156 15.7617 9.86523 15.5547 9.67773C15.3516 9.48633 15.1836 9.26758 15.0508 9.02148C14.918 8.77148 14.8125 8.50977 14.7344 8.23633C14.6562 7.96289 14.6016 7.6875 14.5703 7.41016C14.543 7.12891 14.5293 6.86328 14.5293 6.61328C14.5293 6.17188 14.5879 5.74023 14.7051 5.31836C14.8223 4.89258 15 4.51367 15.2383 4.18164C15.4805 3.84961 15.7812 3.58203 16.1406 3.37891C16.5039 3.17578 16.9297 3.07422 17.418 3.07422C17.7461 3.07422 18.041 3.125 18.3027 3.22656C18.5645 3.32422 18.7969 3.45898 19 3.63086C19.2031 3.80273 19.375 4.00391 19.5156 4.23438C19.6602 4.46484 19.7793 4.70898 19.873 4.9668C19.9668 5.22461 20.0352 5.49219 20.0781 5.76953C20.1211 6.04688 20.1426 6.31641 20.1426 6.57812ZM18.1035 6.77148C18.1035 6.68164 18.0996 6.57031 18.0918 6.4375C18.0879 6.30078 18.0762 6.1582 18.0566 6.00977C18.0371 5.86133 18.0098 5.71289 17.9746 5.56445C17.9434 5.41602 17.9004 5.2832 17.8457 5.16602C17.791 5.04883 17.7227 4.95312 17.6406 4.87891C17.5625 4.80469 17.4688 4.76758 17.3594 4.76758C17.2539 4.76758 17.1621 4.80273 17.084 4.87305C17.0059 4.94336 16.9375 5.03516 16.8789 5.14844C16.8242 5.26172 16.7773 5.39062 16.7383 5.53516C16.7031 5.67578 16.6738 5.81836 16.6504 5.96289C16.6309 6.10352 16.6152 6.24023 16.6035 6.37305C16.5957 6.50195 16.5918 6.61133 16.5918 6.70117C16.5918 6.83008 16.6016 6.98633 16.6211 7.16992C16.6406 7.35352 16.6777 7.5293 16.7324 7.69727C16.7871 7.86523 16.8613 8.00977 16.9551 8.13086C17.0527 8.24805 17.1797 8.30664 17.3359 8.30664C17.4844 8.30664 17.6074 8.25195 17.7051 8.14258C17.8066 8.0332 17.8867 7.90039 17.9453 7.74414C18.0039 7.58398 18.0449 7.41602 18.0684 7.24023C18.0918 7.06445 18.1035 6.9082 18.1035 6.77148ZM25.9141 3.24414C25.8789 3.41992 25.8457 3.625 25.8145 3.85938C25.7871 4.09375 25.7617 4.34766 25.7383 4.62109C25.7188 4.89062 25.7031 5.17383 25.6914 5.4707C25.6797 5.76367 25.6738 6.05664 25.6738 6.34961C25.6738 6.44727 25.6758 6.54492 25.6797 6.64258C25.6836 6.73633 25.6855 6.82812 25.6855 6.91797C25.6855 7.10938 25.6738 7.32617 25.6504 7.56836C25.6309 7.81055 25.5879 8.05859 25.5215 8.3125C25.459 8.5625 25.3711 8.80859 25.2578 9.05078C25.1445 9.29297 24.9941 9.50781 24.8066 9.69531C24.623 9.88281 24.3984 10.0332 24.1328 10.1465C23.8672 10.2637 23.5527 10.3223 23.1895 10.3223C22.877 10.3223 22.5996 10.2812 22.3574 10.1992C22.1191 10.1172 21.9102 10.0059 21.7305 9.86523C21.5547 9.7207 21.4062 9.55078 21.2852 9.35547C21.1641 9.16016 21.0664 8.95117 20.9922 8.72852C20.918 8.50195 20.8633 8.26562 20.8281 8.01953C20.7969 7.77344 20.7812 7.5293 20.7812 7.28711C20.7812 7.22852 20.7812 7.19336 20.7812 7.18164C20.7852 7.16602 20.7871 7.15625 20.7871 7.15234C20.7871 7.14844 20.7891 7.14258 20.793 7.13477C20.7969 7.12305 20.7988 7.0918 20.7988 7.04102C20.7988 6.99023 20.7988 6.91016 20.7988 6.80078C20.8027 6.69141 20.8047 6.53711 20.8047 6.33789C20.8047 6.10352 20.8008 5.83984 20.793 5.54688C20.7852 5.25 20.7676 4.96094 20.7402 4.67969C20.7168 4.39453 20.6816 4.13672 20.6348 3.90625C20.5879 3.67578 20.5273 3.50781 20.4531 3.40234C20.7695 3.45703 21.0664 3.49414 21.3438 3.51367C21.625 3.5332 21.8809 3.54297 22.1113 3.54297C22.2637 3.54297 22.4004 3.54102 22.5215 3.53711C22.6465 3.5293 22.7539 3.52148 22.8438 3.51367C22.9453 3.50586 23.0371 3.49609 23.1191 3.48438C23.041 3.86719 22.9648 4.30273 22.8906 4.79102C22.8203 5.27539 22.7852 5.83203 22.7852 6.46094C22.7852 6.60547 22.791 6.75586 22.8027 6.91211C22.8184 7.06836 22.8438 7.21289 22.8789 7.3457C22.9141 7.47461 22.9609 7.58203 23.0195 7.66797C23.082 7.75 23.1602 7.79102 23.2539 7.79102C23.3711 7.79102 23.4629 7.75195 23.5293 7.67383C23.5957 7.5957 23.6445 7.49414 23.6758 7.36914C23.7109 7.24023 23.7305 7.09766 23.7344 6.94141C23.7422 6.78516 23.7461 6.62891 23.7461 6.47266C23.7422 5.96484 23.7266 5.49023 23.6992 5.04883C23.6875 4.86133 23.6719 4.67188 23.6523 4.48047C23.6367 4.28906 23.6172 4.10938 23.5938 3.94141C23.5703 3.76953 23.543 3.61719 23.5117 3.48438C23.4805 3.34766 23.4453 3.24023 23.4062 3.16211C23.7227 3.2168 24.0156 3.25391 24.2852 3.27344C24.5547 3.29297 24.7949 3.30273 25.0059 3.30273C25.1465 3.30273 25.2715 3.30078 25.3809 3.29688C25.4941 3.28906 25.5898 3.28125 25.668 3.27344C25.7617 3.26562 25.8438 3.25586 25.9141 3.24414ZM31.0234 2.88672C30.9922 3.0625 30.9688 3.23438 30.9531 3.40234C30.9414 3.57031 30.9355 3.74219 30.9355 3.91797C30.9355 4.08594 30.9414 4.25586 30.9531 4.42773C30.9688 4.5957 30.9922 4.76562 31.0234 4.9375C30.8359 4.83984 30.623 4.76758 30.3848 4.7207C30.1504 4.67383 29.9102 4.63672 29.6641 4.60938V5.11328C29.6641 5.55469 29.6719 6.00195 29.6875 6.45508C29.7031 6.9043 29.7285 7.3418 29.7637 7.76758C29.7988 8.18945 29.8438 8.58984 29.8984 8.96875C29.957 9.34766 30.0273 9.68359 30.1094 9.97656C30.043 9.97266 29.9648 9.9668 29.875 9.95898C29.7969 9.95508 29.7051 9.95117 29.5996 9.94727C29.4941 9.94336 29.373 9.94141 29.2363 9.94141C28.9824 9.94141 28.6895 9.95312 28.3574 9.97656C28.0254 9.99609 27.666 10.0352 27.2793 10.0938C27.4121 9.33203 27.5059 8.54102 27.5605 7.7207C27.6191 6.89648 27.6484 6.0918 27.6484 5.30664V4.60938C27.3828 4.62891 27.1191 4.66016 26.8574 4.70312C26.5996 4.74219 26.3555 4.79102 26.125 4.84961C26.1406 4.80664 26.1543 4.75 26.166 4.67969C26.1777 4.60938 26.1855 4.53711 26.1895 4.46289C26.1973 4.38867 26.2012 4.31641 26.2012 4.24609C26.2051 4.17578 26.207 4.11719 26.207 4.07031C26.207 3.87109 26.1992 3.67383 26.1836 3.47852C26.168 3.2832 26.1484 3.08594 26.125 2.88672C26.3125 2.96484 26.5352 3.0293 26.793 3.08008C27.0508 3.12695 27.3125 3.16211 27.5781 3.18555C27.5547 2.8457 27.5273 2.53125 27.4961 2.24219C27.4648 1.95313 27.4277 1.69141 27.3848 1.45703C27.7012 1.51172 27.9941 1.54883 28.2637 1.56836C28.5332 1.58789 28.7773 1.59766 28.9961 1.59766C29.1367 1.59766 29.2617 1.5957 29.3711 1.5918C29.4844 1.58398 29.5801 1.57617 29.6582 1.56836C29.752 1.56055 29.834 1.55078 29.9043 1.53906C29.8613 1.72656 29.8242 1.96094 29.793 2.24219C29.7656 2.51953 29.7383 2.83008 29.7109 3.17383C29.9688 3.14648 30.2109 3.10938 30.4375 3.0625C30.668 3.01562 30.8633 2.95703 31.0234 2.88672ZM36.4023 9.96484C36.3359 9.95703 36.2539 9.94922 36.1562 9.94141C36.0742 9.93359 35.9727 9.92773 35.8516 9.92383C35.7344 9.91992 35.6016 9.91797 35.4531 9.91797C35.1641 9.91797 34.8203 9.93164 34.4219 9.95898C34.0234 9.98633 33.5801 10.0391 33.0918 10.1172C33.2988 9.24609 33.4414 8.39258 33.5195 7.55664C33.6016 6.7207 33.6426 5.91602 33.6426 5.14258C33.6426 4.43945 33.6152 3.7793 33.5605 3.16211C33.5059 2.54102 33.4336 1.96875 33.3438 1.44531C33.7344 1.51562 34.084 1.5625 34.3926 1.58594C34.7051 1.60938 34.9746 1.62109 35.2012 1.62109C35.3574 1.62109 35.4941 1.61719 35.6113 1.60938C35.7324 1.60156 35.832 1.59375 35.9102 1.58594C36.0039 1.57422 36.084 1.5625 36.1504 1.55078C36.2832 2.31641 36.4492 3.07422 36.6484 3.82422C36.8477 4.57031 37.0938 5.32031 37.3867 6.07422C37.6328 5.3125 37.8281 4.55078 37.9727 3.78906C38.1172 3.02344 38.2148 2.24219 38.2656 1.44531L38.3125 1.55078L38.2656 1.44531C38.6562 1.51562 39.0117 1.5625 39.332 1.58594C39.6523 1.60938 39.9355 1.62109 40.1816 1.62109C40.3457 1.62109 40.4902 1.61719 40.6152 1.60938C40.7402 1.60156 40.8477 1.59375 40.9375 1.58594C41.0391 1.57422 41.127 1.5625 41.2012 1.55078C41.1191 1.94141 41.0566 2.4043 41.0137 2.93945C40.9707 3.4707 40.9492 4.04102 40.9492 4.65039C40.9492 5.08398 40.9609 5.53125 40.9844 5.99219C41.0078 6.44922 41.043 6.90625 41.0898 7.36328C41.1406 7.81641 41.2051 8.26367 41.2832 8.70508C41.3613 9.14648 41.4551 9.56641 41.5645 9.96484C41.4863 9.95703 41.3965 9.94922 41.2949 9.94141C41.2051 9.93359 41.0996 9.92773 40.9785 9.92383C40.8574 9.91992 40.7168 9.91797 40.5566 9.91797C40.252 9.91797 39.8926 9.93164 39.4785 9.95898C39.0684 9.98633 38.6191 10.0391 38.1309 10.1172C38.2285 9.92188 38.3086 9.67188 38.3711 9.36719C38.4375 9.0625 38.4902 8.73828 38.5293 8.39453C38.5723 8.05078 38.6035 7.70898 38.623 7.36914C38.6465 7.02539 38.6621 6.71875 38.6699 6.44922C38.5566 6.69141 38.4473 6.9375 38.3418 7.1875C38.2363 7.4375 38.127 7.70508 38.0137 7.99023C37.9043 8.27148 37.7891 8.57617 37.668 8.9043C37.5469 9.23242 37.4141 9.59766 37.2695 10C37.1211 9.59766 36.9863 9.23242 36.8652 8.9043C36.7441 8.57617 36.6289 8.27148 36.5195 7.99023C36.4141 7.70898 36.3086 7.44336 36.2031 7.19336C36.1016 6.93945 35.9961 6.6875 35.8867 6.4375C35.9219 7.05469 35.9805 7.66406 36.0625 8.26562C36.1445 8.86328 36.2578 9.42969 36.4023 9.96484ZM47.0957 4.55078C47.0957 4.84375 47.0527 5.12891 46.9668 5.40625C46.8848 5.68359 46.7383 5.92969 46.5273 6.14453C46.3164 6.35938 46.0312 6.53125 45.6719 6.66016C45.3164 6.78906 44.8633 6.85352 44.3125 6.85352C44.3281 7.04492 44.3672 7.20508 44.4297 7.33398C44.4961 7.46289 44.5742 7.56641 44.6641 7.64453C44.7539 7.72266 44.8496 7.78125 44.9512 7.82031C45.0527 7.85938 45.1465 7.88672 45.2324 7.90234C45.3184 7.91797 45.3906 7.92578 45.4492 7.92578C45.5078 7.92578 45.5371 7.92578 45.5371 7.92578C45.7793 7.89844 45.9961 7.83594 46.1875 7.73828C46.2695 7.69922 46.3496 7.65039 46.4277 7.5918C46.5059 7.5293 46.5762 7.45703 46.6387 7.375C46.7051 7.28906 46.7578 7.19336 46.7969 7.08789C46.8398 6.97852 46.8652 6.85352 46.873 6.71289C46.9746 6.9668 47.0449 7.20508 47.084 7.42773C47.127 7.64648 47.1484 7.85156 47.1484 8.04297C47.1484 8.39453 47.084 8.71875 46.9551 9.01562C46.8301 9.30859 46.6562 9.5625 46.4336 9.77734C46.2109 9.99219 45.9453 10.1582 45.6367 10.2754C45.332 10.3965 45 10.457 44.6406 10.457C44.2891 10.457 43.9492 10.3965 43.6211 10.2754C43.2969 10.1543 43.0078 9.96289 42.7539 9.70117C42.5039 9.43555 42.3027 9.0918 42.1504 8.66992C42.002 8.24805 41.9277 7.73633 41.9277 7.13477C41.9277 6.48242 42.0215 5.9043 42.209 5.40039C42.3965 4.89648 42.6484 4.47461 42.9648 4.13477C43.2812 3.79102 43.6465 3.53125 44.0605 3.35547C44.4785 3.17578 44.916 3.08594 45.373 3.08594C45.5996 3.08594 45.8164 3.11133 46.0234 3.16211C46.2344 3.21289 46.418 3.29688 46.5742 3.41406C46.7344 3.53125 46.8613 3.68359 46.9551 3.87109C47.0488 4.05469 47.0957 4.28125 47.0957 4.55078ZM44.2891 5.88672C44.3984 5.88281 44.5254 5.86133 44.6699 5.82227C44.8145 5.7793 44.9512 5.7207 45.0801 5.64648C45.209 5.57227 45.3164 5.48047 45.4023 5.37109C45.4922 5.26172 45.5371 5.13672 45.5371 4.99609C45.5371 4.90625 45.5059 4.83398 45.4434 4.7793C45.3809 4.72461 45.3008 4.69727 45.2031 4.69727C45.0664 4.69727 44.9434 4.73633 44.834 4.81445C44.7285 4.89258 44.6367 4.99023 44.5586 5.10742C44.4844 5.22461 44.4238 5.35352 44.377 5.49414C44.3301 5.63477 44.3008 5.76562 44.2891 5.88672Z" fill="white"/>
</svg>
