<svg width="61" height="13" viewBox="0 0 61 13" fill="none" xmlns="http://www.w3.org/2000/svg">
<path d="M3.53906 9.96484C3.47266 9.95703 3.39062 9.94922 3.29297 9.94141C3.21094 9.93359 3.10938 9.92773 2.98828 9.92383C2.87109 9.91992 2.73828 9.91797 2.58984 9.91797C2.30078 9.91797 1.95703 9.93164 1.55859 9.95898C1.16016 9.98633 0.716797 10.0391 0.228516 10.1172C0.435547 9.24609 0.578125 8.39258 0.65625 7.55664C0.738281 6.7207 0.779297 5.91602 0.779297 5.14258C0.779297 4.43945 0.751953 3.7793 0.697266 3.16211C0.642578 2.54102 0.570312 1.96875 0.480469 1.44531C0.871094 1.51562 1.2207 1.5625 1.5293 1.58594C1.8418 1.60938 2.11133 1.62109 2.33789 1.62109C2.49414 1.62109 2.63086 1.61719 2.74805 1.60938C2.86914 1.60156 2.96875 1.59375 3.04688 1.58594C3.14062 1.57422 3.2207 1.5625 3.28711 1.55078C3.41992 2.31641 3.58594 3.07422 3.78516 3.82422C3.98438 4.57031 4.23047 5.32031 4.52344 6.07422C4.76953 5.3125 4.96484 4.55078 5.10938 3.78906C5.25391 3.02344 5.35156 2.24219 5.40234 1.44531L5.44922 1.55078L5.40234 1.44531C5.79297 1.51562 6.14844 1.5625 6.46875 1.58594C6.78906 1.60938 7.07227 1.62109 7.31836 1.62109C7.48242 1.62109 7.62695 1.61719 7.75195 1.60938C7.87695 1.60156 7.98438 1.59375 8.07422 1.58594C8.17578 1.57422 8.26367 1.5625 8.33789 1.55078C8.25586 1.94141 8.19336 2.4043 8.15039 2.93945C8.10742 3.4707 8.08594 4.04102 8.08594 4.65039C8.08594 5.08398 8.09766 5.53125 8.12109 5.99219C8.14453 6.44922 8.17969 6.90625 8.22656 7.36328C8.27734 7.81641 8.3418 8.26367 8.41992 8.70508C8.49805 9.14648 8.5918 9.56641 8.70117 9.96484C8.62305 9.95703 8.5332 9.94922 8.43164 9.94141C8.3418 9.93359 8.23633 9.92773 8.11523 9.92383C7.99414 9.91992 7.85352 9.91797 7.69336 9.91797C7.38867 9.91797 7.0293 9.93164 6.61523 9.95898C6.20508 9.98633 5.75586 10.0391 5.26758 10.1172C5.36523 9.92188 5.44531 9.67188 5.50781 9.36719C5.57422 9.0625 5.62695 8.73828 5.66602 8.39453C5.70898 8.05078 5.74023 7.70898 5.75977 7.36914C5.7832 7.02539 5.79883 6.71875 5.80664 6.44922C5.69336 6.69141 5.58398 6.9375 5.47852 7.1875C5.37305 7.4375 5.26367 7.70508 5.15039 7.99023C5.04102 8.27148 4.92578 8.57617 4.80469 8.9043C4.68359 9.23242 4.55078 9.59766 4.40625 10C4.25781 9.59766 4.12305 9.23242 4.00195 8.9043C3.88086 8.57617 3.76562 8.27148 3.65625 7.99023C3.55078 7.70898 3.44531 7.44336 3.33984 7.19336C3.23828 6.93945 3.13281 6.6875 3.02344 6.4375C3.05859 7.05469 3.11719 7.66406 3.19922 8.26562C3.28125 8.86328 3.39453 9.42969 3.53906 9.96484ZM14.9414 3.26758C14.8984 3.43164 14.8613 3.62891 14.8301 3.85938C14.8027 4.08984 14.7773 4.33789 14.7539 4.60352C14.7305 4.86914 14.7109 5.14648 14.6953 5.43555C14.6836 5.72461 14.6719 6.00586 14.6602 6.2793C14.6367 6.92383 14.623 7.60352 14.6191 8.31836C14.6191 8.7168 14.5938 9.10938 14.543 9.49609C14.4961 9.88281 14.418 10.248 14.3086 10.5918C14.2031 10.9395 14.0645 11.2598 13.8926 11.5527C13.7246 11.8496 13.5176 12.1035 13.2715 12.3145C13.0293 12.5293 12.7461 12.6973 12.4219 12.8184C12.1016 12.9395 11.7383 13 11.332 13C10.9531 13 10.625 12.9609 10.3477 12.8828C10.0703 12.8047 9.83984 12.6934 9.65625 12.5488C9.47656 12.4082 9.3418 12.2383 9.25195 12.0391C9.16602 11.8398 9.12305 11.6211 9.12305 11.3828C9.12305 11.1445 9.16406 10.9277 9.24609 10.7324C9.32812 10.541 9.43555 10.3789 9.56836 10.2461C9.70117 10.1133 9.85156 10.0117 10.0195 9.94141C10.1875 9.86719 10.3574 9.83008 10.5293 9.83008C10.748 9.83008 10.9551 9.89258 11.1504 10.0176C11.3457 10.1426 11.4941 10.3398 11.5957 10.6094C11.5723 10.5898 11.5449 10.5762 11.5137 10.5684C11.4863 10.5645 11.457 10.5625 11.4258 10.5625C11.3828 10.5625 11.3379 10.5723 11.291 10.5918C11.248 10.6113 11.209 10.6387 11.1738 10.6738C11.1387 10.709 11.1094 10.748 11.0859 10.791C11.0664 10.8379 11.0566 10.8867 11.0566 10.9375C11.0566 10.9961 11.0684 11.0449 11.0918 11.084C11.1152 11.127 11.1426 11.1602 11.1738 11.1836C11.209 11.207 11.2461 11.2227 11.2852 11.2305C11.3281 11.2422 11.3672 11.248 11.4023 11.248C11.457 11.248 11.5254 11.2363 11.6074 11.2129C11.6895 11.1895 11.7734 11.1406 11.8594 11.0664C11.9492 10.9922 12.0371 10.8887 12.123 10.7559C12.2129 10.623 12.291 10.4453 12.3574 10.2227C12.4277 10.0039 12.4824 9.73633 12.5215 9.41992C12.5645 9.10352 12.584 8.72461 12.5801 8.2832C12.4785 8.55664 12.3711 8.7793 12.2578 8.95117C12.1484 9.11914 12.0312 9.25 11.9062 9.34375C11.7852 9.4375 11.6562 9.5 11.5195 9.53125C11.3867 9.5625 11.2441 9.57812 11.0918 9.57812C10.9004 9.57812 10.6992 9.54492 10.4883 9.47852C10.2812 9.4082 10.0898 9.28711 9.91406 9.11523C9.74219 8.93945 9.59961 8.70117 9.48633 8.40039C9.37305 8.09961 9.31641 7.7168 9.31641 7.25195C9.31641 7.18945 9.31641 7.14648 9.31641 7.12305C9.32031 7.0957 9.32227 7.07617 9.32227 7.06445C9.32227 7.04883 9.32422 7.03125 9.32812 7.01172C9.33203 6.99219 9.33398 6.95508 9.33398 6.90039C9.33398 6.8418 9.33398 6.75977 9.33398 6.6543C9.33789 6.54883 9.33984 6.40039 9.33984 6.20898C9.33984 5.98633 9.33594 5.73438 9.32812 5.45312C9.32031 5.17188 9.30273 4.89648 9.27539 4.62695C9.25195 4.35742 9.2168 4.11328 9.16992 3.89453C9.12305 3.67188 9.0625 3.50781 8.98828 3.40234C9.30469 3.45703 9.60156 3.49414 9.87891 3.51367C10.1602 3.5332 10.416 3.54297 10.6465 3.54297C10.7988 3.54297 10.9355 3.54102 11.0566 3.53711C11.1816 3.5293 11.2891 3.52148 11.3789 3.51367C11.4805 3.50586 11.5723 3.49609 11.6543 3.48438C11.623 3.55078 11.5879 3.67773 11.5488 3.86523C11.5137 4.05273 11.4785 4.27734 11.4434 4.53906C11.4082 4.80078 11.3789 5.08789 11.3555 5.40039C11.332 5.70898 11.3203 6.02148 11.3203 6.33789C11.3203 6.57617 11.3379 6.7793 11.373 6.94727C11.4082 7.11523 11.4551 7.25391 11.5137 7.36328C11.5762 7.46875 11.6465 7.54688 11.7246 7.59766C11.8066 7.64844 11.8945 7.67383 11.9883 7.67383C12.1367 7.67383 12.2539 7.61328 12.3398 7.49219C12.4297 7.37109 12.5059 7.21875 12.5684 7.03516C12.5605 6.79297 12.5469 6.50977 12.5273 6.18555C12.5078 5.86133 12.4805 5.52344 12.4453 5.17188C12.4141 4.82031 12.3711 4.4668 12.3164 4.11133C12.2656 3.75195 12.2012 3.41797 12.123 3.10938C12.2441 3.15234 12.3887 3.19141 12.5566 3.22656C12.7012 3.25781 12.877 3.28516 13.084 3.30859C13.291 3.32812 13.5352 3.33789 13.8164 3.33789C14.1484 3.33789 14.5234 3.31445 14.9414 3.26758ZM23.2441 3.31445C23.2441 3.50977 23.207 3.6875 23.1328 3.84766C23.0625 4.00391 22.9629 4.13867 22.834 4.25195C22.7051 4.36523 22.5527 4.45312 22.377 4.51562C22.2051 4.57812 22.0176 4.60938 21.8145 4.60938C21.5918 4.60938 21.4004 4.58203 21.2402 4.52734C21.084 4.47266 20.9512 4.4043 20.8418 4.32227C20.7363 4.23633 20.6523 4.14258 20.5898 4.04102C20.5273 3.93555 20.4785 3.83398 20.4434 3.73633C20.4121 3.63867 20.3906 3.54883 20.3789 3.4668C20.3711 3.38477 20.3672 3.32227 20.3672 3.2793C20.4141 3.35742 20.4688 3.4082 20.5312 3.43164C20.5938 3.45117 20.6465 3.46094 20.6895 3.46094C20.7988 3.46094 20.875 3.43164 20.918 3.37305C20.9648 3.31445 20.9883 3.25195 20.9883 3.18555C20.9883 3.14258 20.9785 3.09766 20.959 3.05078C20.9434 3.00391 20.9121 2.96094 20.8652 2.92188C20.8223 2.87891 20.7617 2.84375 20.6836 2.81641C20.6094 2.78906 20.5156 2.77539 20.4023 2.77539C20.3242 2.77539 20.2441 2.79102 20.1621 2.82227C20.0801 2.84961 20.0039 2.89453 19.9336 2.95703C19.8672 3.01562 19.8125 3.08984 19.7695 3.17969C19.7266 3.26953 19.7051 3.375 19.7051 3.49609C19.7051 3.61328 19.7285 3.73047 19.7754 3.84766C19.8262 3.96094 19.8926 4.06836 19.9746 4.16992C20.0605 4.27148 20.1602 4.36328 20.2734 4.44531C20.3906 4.52734 20.5176 4.5957 20.6543 4.65039C20.8691 4.74023 21.0898 4.82812 21.3164 4.91406C21.5469 5 21.7695 5.09375 21.9844 5.19531C22.1992 5.29688 22.4004 5.41406 22.5879 5.54688C22.7793 5.67578 22.9453 5.83008 23.0859 6.00977C23.2305 6.18945 23.3438 6.40039 23.4258 6.64258C23.5117 6.88086 23.5547 7.16016 23.5547 7.48047C23.5547 7.9375 23.4609 8.35547 23.2734 8.73438C23.0898 9.10938 22.8418 9.43164 22.5293 9.70117C22.2207 9.9668 21.8613 10.1719 21.4512 10.3164C21.0449 10.4648 20.6191 10.5391 20.1738 10.5391C19.7715 10.5391 19.3887 10.4785 19.0254 10.3574C18.6621 10.2402 18.3438 10.0781 18.0703 9.87109C17.7969 9.66406 17.5781 9.42188 17.4141 9.14453C17.2539 8.86328 17.1738 8.56055 17.1738 8.23633C17.1738 7.99805 17.2129 7.78906 17.291 7.60938C17.3691 7.42969 17.4766 7.28125 17.6133 7.16406C17.7539 7.04297 17.916 6.95312 18.0996 6.89453C18.2871 6.83594 18.4863 6.80664 18.6973 6.80664C18.8613 6.80664 19.0215 6.82422 19.1777 6.85938C19.3379 6.89453 19.4863 6.94727 19.623 7.01758C19.7637 7.08398 19.8887 7.16602 19.998 7.26367C20.1113 7.36133 20.2012 7.47266 20.2676 7.59766C20.1855 7.57422 20.1133 7.5625 20.0508 7.5625C19.9453 7.5625 19.8613 7.59375 19.7988 7.65625C19.7363 7.71875 19.7051 7.8125 19.7051 7.9375C19.7051 8.00391 19.7207 8.06641 19.752 8.125C19.7832 8.17969 19.8223 8.22852 19.8691 8.27148C19.9199 8.31445 19.9766 8.34766 20.0391 8.37109C20.1055 8.39453 20.1738 8.40625 20.2441 8.40625C20.3223 8.40625 20.3945 8.39062 20.4609 8.35938C20.5273 8.32422 20.5859 8.2793 20.6367 8.22461C20.6875 8.16992 20.7266 8.10938 20.7539 8.04297C20.7812 7.97656 20.7949 7.9082 20.7949 7.83789C20.7949 7.70117 20.752 7.5625 20.666 7.42188C20.584 7.28125 20.4629 7.15625 20.3027 7.04688C19.998 6.85938 19.7109 6.69727 19.4414 6.56055C19.1719 6.42383 18.9238 6.29492 18.6973 6.17383C18.4707 6.04883 18.2656 5.92383 18.082 5.79883C17.9023 5.67383 17.748 5.5293 17.6191 5.36523C17.4941 5.20117 17.3984 5.00977 17.332 4.79102C17.2656 4.56836 17.2324 4.30078 17.2324 3.98828C17.2324 3.61328 17.3047 3.26172 17.4492 2.93359C17.5938 2.60547 17.8027 2.32031 18.0762 2.07812C18.3535 1.83203 18.6914 1.63867 19.0898 1.49805C19.4883 1.35742 19.9414 1.28711 20.4492 1.28711C20.9609 1.28711 21.3945 1.34961 21.75 1.47461C22.1055 1.5957 22.3926 1.75391 22.6113 1.94922C22.834 2.14453 22.9941 2.36328 23.0918 2.60547C23.1934 2.84375 23.2441 3.08008 23.2441 3.31445ZM29.0801 4.55078C29.0801 4.84375 29.0371 5.12891 28.9512 5.40625C28.8691 5.68359 28.7227 5.92969 28.5117 6.14453C28.3008 6.35938 28.0156 6.53125 27.6562 6.66016C27.3008 6.78906 26.8477 6.85352 26.2969 6.85352C26.3125 7.04492 26.3516 7.20508 26.4141 7.33398C26.4805 7.46289 26.5586 7.56641 26.6484 7.64453C26.7383 7.72266 26.834 7.78125 26.9355 7.82031C27.0371 7.85938 27.1309 7.88672 27.2168 7.90234C27.3027 7.91797 27.375 7.92578 27.4336 7.92578C27.4922 7.92578 27.5215 7.92578 27.5215 7.92578C27.7637 7.89844 27.9805 7.83594 28.1719 7.73828C28.2539 7.69922 28.334 7.65039 28.4121 7.5918C28.4902 7.5293 28.5605 7.45703 28.623 7.375C28.6895 7.28906 28.7422 7.19336 28.7812 7.08789C28.8242 6.97852 28.8496 6.85352 28.8574 6.71289C28.959 6.9668 29.0293 7.20508 29.0684 7.42773C29.1113 7.64648 29.1328 7.85156 29.1328 8.04297C29.1328 8.39453 29.0684 8.71875 28.9395 9.01562C28.8145 9.30859 28.6406 9.5625 28.418 9.77734C28.1953 9.99219 27.9297 10.1582 27.6211 10.2754C27.3164 10.3965 26.9844 10.457 26.625 10.457C26.2734 10.457 25.9336 10.3965 25.6055 10.2754C25.2812 10.1543 24.9922 9.96289 24.7383 9.70117C24.4883 9.43555 24.2871 9.0918 24.1348 8.66992C23.9863 8.24805 23.9121 7.73633 23.9121 7.13477C23.9121 6.48242 24.0059 5.9043 24.1934 5.40039C24.3809 4.89648 24.6328 4.47461 24.9492 4.13477C25.2656 3.79102 25.6309 3.53125 26.0449 3.35547C26.4629 3.17578 26.9004 3.08594 27.3574 3.08594C27.584 3.08594 27.8008 3.11133 28.0078 3.16211C28.2188 3.21289 28.4023 3.29688 28.5586 3.41406C28.7188 3.53125 28.8457 3.68359 28.9395 3.87109C29.0332 4.05469 29.0801 4.28125 29.0801 4.55078ZM26.2734 5.88672C26.3828 5.88281 26.5098 5.86133 26.6543 5.82227C26.7988 5.7793 26.9355 5.7207 27.0645 5.64648C27.1934 5.57227 27.3008 5.48047 27.3867 5.37109C27.4766 5.26172 27.5215 5.13672 27.5215 4.99609C27.5215 4.90625 27.4902 4.83398 27.4277 4.7793C27.3652 4.72461 27.2852 4.69727 27.1875 4.69727C27.0508 4.69727 26.9277 4.73633 26.8184 4.81445C26.7129 4.89258 26.6211 4.99023 26.543 5.10742C26.4688 5.22461 26.4082 5.35352 26.3613 5.49414C26.3145 5.63477 26.2852 5.76562 26.2734 5.88672ZM32.7656 4.68555C32.6445 4.68555 32.5352 4.7207 32.4375 4.79102C32.3398 4.85742 32.252 4.95312 32.1738 5.07812C32.0996 5.19922 32.0332 5.3457 31.9746 5.51758C31.9199 5.68945 31.875 5.87891 31.8398 6.08594C31.8398 6.41797 31.8477 6.75391 31.8633 7.09375C31.8789 7.43359 31.9043 7.76953 31.9395 8.10156C31.9746 8.43359 32.0195 8.75781 32.0742 9.07422C32.1328 9.39062 32.2031 9.69141 32.2852 9.97656C32.2227 9.97266 32.1504 9.9668 32.0684 9.95898C31.998 9.95508 31.9121 9.95117 31.8105 9.94727C31.7129 9.94336 31.5996 9.94141 31.4707 9.94141C31.2285 9.94141 30.9473 9.95312 30.627 9.97656C30.3105 9.99609 29.959 10.0352 29.5723 10.0938C29.6191 9.875 29.6602 9.60742 29.6953 9.29102C29.7305 8.97461 29.7598 8.63086 29.7832 8.25977C29.8066 7.88867 29.8242 7.50195 29.8359 7.09961C29.8516 6.69336 29.8594 6.29297 29.8594 5.89844C29.8594 5.60547 29.8555 5.31836 29.8477 5.03711C29.8398 4.75586 29.8281 4.49023 29.8125 4.24023C29.8008 3.99023 29.7832 3.75977 29.7598 3.54883C29.7363 3.33789 29.709 3.15625 29.6777 3.00391C29.9941 3.05859 30.2812 3.09766 30.5391 3.12109C30.8008 3.14062 31.0352 3.15039 31.2422 3.15039C31.375 3.15039 31.4922 3.14844 31.5938 3.14453C31.6953 3.13672 31.7832 3.12891 31.8574 3.12109C31.9395 3.10938 32.0137 3.09766 32.0801 3.08594C32.0332 3.28125 31.998 3.49805 31.9746 3.73633C32.1777 3.49023 32.3984 3.30859 32.6367 3.19141C32.8789 3.07422 33.1055 3.01562 33.3164 3.01562C33.668 3.01562 33.9648 3.08008 34.207 3.20898C34.4492 3.33398 34.6445 3.5 34.793 3.70703C34.9414 3.91016 35.0488 4.14258 35.1152 4.4043C35.1816 4.66602 35.2148 4.93164 35.2148 5.20117C35.2148 5.46289 35.1777 5.71875 35.1035 5.96875C35.0293 6.21875 34.9219 6.44336 34.7812 6.64258C34.6406 6.83789 34.4668 6.99609 34.2598 7.11719C34.0527 7.23828 33.8184 7.29883 33.5566 7.29883C33.3262 7.29883 33.1289 7.25977 32.9648 7.18164C32.8047 7.10352 32.6719 7.00195 32.5664 6.87695C32.4609 6.75195 32.3828 6.61523 32.332 6.4668C32.2852 6.31445 32.2617 6.16406 32.2617 6.01562C32.2617 5.85938 32.2832 5.70703 32.3262 5.55859C32.373 5.41016 32.4395 5.27539 32.5254 5.1543C32.5527 5.24023 32.5859 5.30664 32.625 5.35352C32.668 5.39648 32.7109 5.42773 32.7539 5.44727C32.8008 5.4707 32.8516 5.48438 32.9062 5.48828C33.0508 5.48828 33.1582 5.45508 33.2285 5.38867C33.3027 5.32227 33.3398 5.24414 33.3398 5.1543C33.3398 5.11133 33.332 5.0625 33.3164 5.00781C33.3008 4.95312 33.2715 4.90234 33.2285 4.85547C33.1895 4.80859 33.1328 4.76953 33.0586 4.73828C32.9844 4.70312 32.8867 4.68555 32.7656 4.68555ZM41.1914 3.20898C40.9922 3.77148 40.8281 4.33398 40.6992 4.89648C40.5742 5.45898 40.4668 6.02344 40.377 6.58984C40.291 7.15625 40.2168 7.72266 40.1543 8.28906C40.0918 8.85547 40.0254 9.42188 39.9551 9.98828C39.7832 9.97656 39.5898 9.96875 39.375 9.96484C39.1641 9.95703 38.9414 9.95312 38.707 9.95312C38.5156 9.95312 38.3203 9.95508 38.1211 9.95898C37.9258 9.96289 37.7344 9.9707 37.5469 9.98242C37.3594 9.99023 37.1816 10 37.0137 10.0117C36.8496 10.0273 36.7012 10.043 36.5684 10.0586C36.4941 9.48438 36.4219 8.91406 36.3516 8.34766C36.2812 7.77734 36.1953 7.21094 36.0938 6.64844C35.9922 6.08203 35.8672 5.51953 35.7188 4.96094C35.5703 4.39844 35.3789 3.83789 35.1445 3.2793C35.5234 3.32617 35.9062 3.34961 36.293 3.34961C36.832 3.34961 37.3691 3.30273 37.9043 3.20898C37.8848 3.41992 37.8711 3.62891 37.8633 3.83594C37.8555 4.04297 37.8516 4.25 37.8516 4.45703C37.8516 5.02734 37.8828 5.58984 37.9453 6.14453C38.0117 6.69531 38.1172 7.23633 38.2617 7.76758C38.3828 7.25977 38.4766 6.75391 38.543 6.25C38.6133 5.74609 38.6484 5.24023 38.6484 4.73242C38.6484 4.47461 38.6387 4.2207 38.6191 3.9707C38.5996 3.7168 38.5723 3.46289 38.5371 3.20898C38.9707 3.25586 39.4062 3.2793 39.8438 3.2793C40.2852 3.2793 40.7344 3.25586 41.1914 3.20898ZM44.1914 9.97656C44.125 9.97266 44.0469 9.9668 43.957 9.95898C43.8789 9.95508 43.7871 9.95117 43.6816 9.94727C43.5762 9.94336 43.4551 9.94141 43.3184 9.94141C43.0645 9.94141 42.7715 9.95312 42.4395 9.97656C42.1074 9.99609 41.748 10.0352 41.3613 10.0938C41.4355 9.94531 41.498 9.75977 41.5488 9.53711C41.5996 9.31055 41.6406 9.07031 41.6719 8.81641C41.707 8.55859 41.7324 8.29883 41.748 8.03711C41.7676 7.77539 41.7812 7.53516 41.7891 7.31641C41.7969 7.09766 41.8008 6.91211 41.8008 6.75977C41.8047 6.60742 41.8066 6.51172 41.8066 6.47266C41.7988 5.96484 41.7812 5.49023 41.7539 5.04883C41.7422 4.86133 41.7266 4.67188 41.707 4.48047C41.6914 4.28906 41.6719 4.10938 41.6484 3.94141C41.625 3.76953 41.5977 3.61719 41.5664 3.48438C41.5391 3.34766 41.5059 3.24023 41.4668 3.16211C41.7832 3.2168 42.0762 3.25391 42.3457 3.27344C42.6152 3.29297 42.8594 3.30273 43.0781 3.30273C43.2188 3.30273 43.3438 3.30078 43.4531 3.29688C43.5664 3.28906 43.6621 3.28125 43.7402 3.27344C43.834 3.26562 43.916 3.25586 43.9863 3.24414C43.916 3.5957 43.8574 4.01953 43.8105 4.51562C43.7676 5.01172 43.7461 5.54297 43.7461 6.10938C43.7461 6.43359 43.7539 6.76172 43.7695 7.09375C43.7852 7.42578 43.8105 7.75781 43.8457 8.08984C43.8809 8.41797 43.9258 8.74219 43.9805 9.0625C44.0391 9.37891 44.1094 9.68359 44.1914 9.97656ZM41.502 1.59766C41.502 1.41797 41.5352 1.25 41.6016 1.09375C41.6719 0.933594 41.7656 0.794922 41.8828 0.677734C42.0039 0.556641 42.1445 0.462891 42.3047 0.396484C42.4648 0.326172 42.6348 0.291016 42.8145 0.291016C42.9941 0.291016 43.1621 0.326172 43.3184 0.396484C43.4785 0.462891 43.6172 0.556641 43.7344 0.677734C43.8555 0.794922 43.9492 0.933594 44.0156 1.09375C44.0859 1.25 44.1211 1.41797 44.1211 1.59766C44.1211 1.77734 44.0859 1.94727 44.0156 2.10742C43.9492 2.26758 43.8555 2.4082 43.7344 2.5293C43.6172 2.64648 43.4785 2.74023 43.3184 2.81055C43.1621 2.87695 42.9941 2.91016 42.8145 2.91016C42.6348 2.91016 42.4648 2.87695 42.3047 2.81055C42.1445 2.74023 42.0039 2.64648 41.8828 2.5293C41.7656 2.4082 41.6719 2.26758 41.6016 2.10742C41.5352 1.94727 41.502 1.77734 41.502 1.59766ZM49.6934 5.03125C49.6934 5.19531 49.6641 5.35938 49.6055 5.52344C49.5508 5.6875 49.4707 5.83594 49.3652 5.96875C49.2598 6.09766 49.1289 6.20508 48.9727 6.29102C48.8203 6.37305 48.6484 6.41406 48.457 6.41406C48.2852 6.41406 48.1387 6.38477 48.0176 6.32617C47.8965 6.26758 47.7969 6.19141 47.7188 6.09766C47.6406 6.00391 47.582 5.89648 47.543 5.77539C47.5078 5.65039 47.4902 5.52344 47.4902 5.39453C47.4902 5.12109 47.5566 4.88477 47.6895 4.68555C47.709 4.75195 47.7363 4.80273 47.7715 4.83789C47.8105 4.86914 47.8457 4.89258 47.877 4.9082C47.916 4.92383 47.9551 4.93359 47.9941 4.9375C48.1074 4.9375 48.1797 4.91211 48.2109 4.86133C48.2422 4.81055 48.2617 4.75195 48.2695 4.68555C48.2695 4.61914 48.2441 4.55469 48.1934 4.49219C48.1426 4.42969 48.0547 4.39844 47.9297 4.39844C47.8945 4.39844 47.8438 4.4043 47.7773 4.41602C47.7148 4.42383 47.6426 4.44727 47.5605 4.48633C47.4824 4.52539 47.4023 4.58398 47.3203 4.66211C47.2383 4.73633 47.1621 4.8418 47.0918 4.97852C47.0254 5.11133 46.9707 5.2793 46.9277 5.48242C46.8848 5.68164 46.8633 5.92383 46.8633 6.20898C46.8633 6.50195 46.9062 6.74023 46.9922 6.92383C47.0781 7.10352 47.1797 7.24414 47.2969 7.3457C47.418 7.44336 47.5449 7.50977 47.6777 7.54492C47.8105 7.58008 47.9238 7.59766 48.0176 7.59766C48.0996 7.59766 48.2031 7.58398 48.3281 7.55664C48.4531 7.52539 48.5762 7.4707 48.6973 7.39258C48.8223 7.31445 48.9355 7.20703 49.0371 7.07031C49.1387 6.92969 49.207 6.75 49.2422 6.53125C49.3477 6.6875 49.4316 6.875 49.4941 7.09375C49.5566 7.30859 49.5879 7.5332 49.5879 7.76758C49.5879 8.08789 49.5273 8.40039 49.4062 8.70508C49.2891 9.00977 49.1211 9.28125 48.9023 9.51953C48.6875 9.75391 48.4277 9.94141 48.123 10.082C47.8184 10.2266 47.4824 10.2988 47.1152 10.2988C46.8418 10.2988 46.5879 10.2539 46.3535 10.1641C46.1191 10.0781 45.9062 9.95703 45.7148 9.80078C45.5273 9.64453 45.3594 9.46094 45.2109 9.25C45.0625 9.03516 44.9375 8.80469 44.8359 8.55859C44.7383 8.30859 44.6641 8.04688 44.6133 7.77344C44.5625 7.5 44.5371 7.22656 44.5371 6.95312C44.5371 6.64844 44.5703 6.33789 44.6367 6.02148C44.7031 5.70508 44.7969 5.40039 44.918 5.10742C45.043 4.81445 45.1953 4.53906 45.375 4.28125C45.5547 4.02344 45.7578 3.80078 45.9844 3.61328C46.2109 3.42188 46.4609 3.27148 46.7344 3.16211C47.0078 3.04883 47.2988 2.99219 47.6074 2.99219C47.8848 2.99219 48.1289 3.02539 48.3398 3.0918C48.5508 3.1582 48.7344 3.24609 48.8906 3.35547C49.0469 3.46484 49.1758 3.5918 49.2773 3.73633C49.3789 3.87695 49.4609 4.02344 49.5234 4.17578C49.5859 4.32422 49.6289 4.47266 49.6523 4.62109C49.6797 4.76953 49.6934 4.90625 49.6934 5.03125ZM55.2246 4.55078C55.2246 4.84375 55.1816 5.12891 55.0957 5.40625C55.0137 5.68359 54.8672 5.92969 54.6562 6.14453C54.4453 6.35938 54.1602 6.53125 53.8008 6.66016C53.4453 6.78906 52.9922 6.85352 52.4414 6.85352C52.457 7.04492 52.4961 7.20508 52.5586 7.33398C52.625 7.46289 52.7031 7.56641 52.793 7.64453C52.8828 7.72266 52.9785 7.78125 53.0801 7.82031C53.1816 7.85938 53.2754 7.88672 53.3613 7.90234C53.4473 7.91797 53.5195 7.92578 53.5781 7.92578C53.6367 7.92578 53.666 7.92578 53.666 7.92578C53.9082 7.89844 54.125 7.83594 54.3164 7.73828C54.3984 7.69922 54.4785 7.65039 54.5566 7.5918C54.6348 7.5293 54.7051 7.45703 54.7676 7.375C54.834 7.28906 54.8867 7.19336 54.9258 7.08789C54.9688 6.97852 54.9941 6.85352 55.002 6.71289C55.1035 6.9668 55.1738 7.20508 55.2129 7.42773C55.2559 7.64648 55.2773 7.85156 55.2773 8.04297C55.2773 8.39453 55.2129 8.71875 55.084 9.01562C54.959 9.30859 54.7852 9.5625 54.5625 9.77734C54.3398 9.99219 54.0742 10.1582 53.7656 10.2754C53.4609 10.3965 53.1289 10.457 52.7695 10.457C52.418 10.457 52.0781 10.3965 51.75 10.2754C51.4258 10.1543 51.1367 9.96289 50.8828 9.70117C50.6328 9.43555 50.4316 9.0918 50.2793 8.66992C50.1309 8.24805 50.0566 7.73633 50.0566 7.13477C50.0566 6.48242 50.1504 5.9043 50.3379 5.40039C50.5254 4.89648 50.7773 4.47461 51.0938 4.13477C51.4102 3.79102 51.7754 3.53125 52.1895 3.35547C52.6074 3.17578 53.0449 3.08594 53.502 3.08594C53.7285 3.08594 53.9453 3.11133 54.1523 3.16211C54.3633 3.21289 54.5469 3.29688 54.7031 3.41406C54.8633 3.53125 54.9902 3.68359 55.084 3.87109C55.1777 4.05469 55.2246 4.28125 55.2246 4.55078ZM52.418 5.88672C52.5273 5.88281 52.6543 5.86133 52.7988 5.82227C52.9434 5.7793 53.0801 5.7207 53.209 5.64648C53.3379 5.57227 53.4453 5.48047 53.5312 5.37109C53.6211 5.26172 53.666 5.13672 53.666 4.99609C53.666 4.90625 53.6348 4.83398 53.5723 4.7793C53.5098 4.72461 53.4297 4.69727 53.332 4.69727C53.1953 4.69727 53.0723 4.73633 52.9629 4.81445C52.8574 4.89258 52.7656 4.99023 52.6875 5.10742C52.6133 5.22461 52.5527 5.35352 52.5059 5.49414C52.459 5.63477 52.4297 5.76562 52.418 5.88672ZM60.5742 4.67383C60.5742 4.83008 60.543 4.9707 60.4805 5.0957C60.418 5.2207 60.334 5.32812 60.2285 5.41797C60.123 5.50391 60 5.57227 59.8594 5.62305C59.7188 5.66992 59.5703 5.69336 59.4141 5.69336C59.2344 5.69336 59.0801 5.67188 58.9512 5.62891C58.8262 5.58594 58.7188 5.53125 58.6289 5.46484C58.543 5.39453 58.4746 5.31836 58.4238 5.23633C58.373 5.15039 58.332 5.06836 58.3008 4.99023C58.2734 4.91211 58.2559 4.83984 58.248 4.77344C58.2402 4.70703 58.2363 4.65625 58.2363 4.62109C58.2715 4.6875 58.3164 4.72852 58.3711 4.74414C58.4258 4.75977 58.4688 4.76758 58.5 4.76758C58.5898 4.76758 58.6543 4.74414 58.6934 4.69727C58.7324 4.65039 58.752 4.60156 58.752 4.55078C58.752 4.51953 58.7441 4.48438 58.7285 4.44531C58.7129 4.40625 58.6855 4.37109 58.6465 4.33984C58.6074 4.30469 58.5566 4.27539 58.4941 4.25195C58.4316 4.22852 58.3535 4.2168 58.2598 4.2168C58.2012 4.2168 58.1387 4.22852 58.0723 4.25195C58.0059 4.27539 57.9453 4.3125 57.8906 4.36328C57.8398 4.41016 57.7969 4.4707 57.7617 4.54492C57.7266 4.61523 57.709 4.69727 57.709 4.79102C57.709 4.9668 57.7539 5.11523 57.8438 5.23633C57.9336 5.35742 58.0508 5.46484 58.1953 5.55859C58.3438 5.64844 58.5098 5.73242 58.6934 5.81055C58.8809 5.88867 59.0723 5.9707 59.2676 6.05664C59.4629 6.13867 59.6523 6.23242 59.8359 6.33789C60.0234 6.43945 60.1895 6.56445 60.334 6.71289C60.4824 6.86133 60.6016 7.03906 60.6914 7.24609C60.7812 7.45312 60.8262 7.69922 60.8262 7.98438C60.8262 8.34766 60.752 8.67578 60.6035 8.96875C60.4551 9.26172 60.2559 9.51367 60.0059 9.72461C59.7598 9.93164 59.4727 10.0898 59.1445 10.1992C58.8164 10.3125 58.4707 10.3691 58.1074 10.3691C57.7754 10.3691 57.4609 10.3242 57.1641 10.2344C56.8672 10.1445 56.6074 10.0195 56.3848 9.85938C56.1621 9.69922 55.9844 9.50977 55.8516 9.29102C55.7227 9.07227 55.6582 8.83594 55.6582 8.58203C55.6582 8.39062 55.6895 8.22461 55.752 8.08398C55.8145 7.93945 55.9004 7.82031 56.0098 7.72656C56.123 7.63281 56.2539 7.5625 56.4023 7.51562C56.5547 7.46875 56.7188 7.44531 56.8945 7.44531C57.0234 7.44531 57.1523 7.45898 57.2812 7.48633C57.4102 7.51367 57.5312 7.55469 57.6445 7.60938C57.7578 7.66406 57.8594 7.73047 57.9492 7.80859C58.0391 7.88672 58.1113 7.97656 58.166 8.07812C58.1348 8.07031 58.1035 8.06445 58.0723 8.06055C58.0449 8.05664 58.0156 8.05469 57.9844 8.05469C57.8984 8.05469 57.8301 8.07812 57.7793 8.125C57.7324 8.16797 57.709 8.24023 57.709 8.3418C57.709 8.45117 57.7539 8.54297 57.8438 8.61719C57.9336 8.69141 58.0332 8.72852 58.1426 8.72852C58.2051 8.72852 58.2637 8.71484 58.3184 8.6875C58.373 8.66016 58.4199 8.625 58.459 8.58203C58.498 8.53516 58.5273 8.48438 58.5469 8.42969C58.5703 8.375 58.582 8.31836 58.582 8.25977C58.582 8.1582 58.5469 8.04883 58.4766 7.93164C58.4102 7.81445 58.3145 7.7168 58.1895 7.63867C57.9434 7.48633 57.7109 7.35547 57.4922 7.24609C57.2734 7.13672 57.0723 7.0332 56.8887 6.93555C56.7051 6.83789 56.5391 6.74023 56.3906 6.64258C56.2461 6.54492 56.123 6.43164 56.0215 6.30273C55.9199 6.16992 55.8418 6.01562 55.7871 5.83984C55.7324 5.66016 55.7051 5.44336 55.7051 5.18945C55.7051 4.88867 55.7637 4.61133 55.8809 4.35742C56.002 4.09961 56.1738 3.87695 56.3965 3.68945C56.6191 3.50195 56.8926 3.35547 57.2168 3.25C57.541 3.14062 57.9082 3.08594 58.3184 3.08594C58.7363 3.08594 59.0879 3.13477 59.373 3.23242C59.6621 3.33008 59.8945 3.45508 60.0703 3.60742C60.25 3.75977 60.3789 3.92969 60.457 4.11719C60.5352 4.30469 60.5742 4.49023 60.5742 4.67383Z" fill="white"/>
</svg>
